<svg width="36" height="36" viewBox="0 0 36 36" fill="none" xmlns="http://www.w3.org/2000/svg">
<path fill-rule="evenodd" clip-rule="evenodd" d="M13.035 9V14.61C11.22 13.395 10.035 11.34 10.035 9C10.035 5.265 13.05 2.25 16.785 2.25C20.52 2.25 23.535 5.265 23.535 9C23.535 11.34 22.35 13.395 20.535 14.61V9C20.535 6.93 18.855 5.25 16.785 5.25C14.715 5.25 13.035 6.93 13.035 9ZM19.035 18H20.655L29.34 22.32L27.735 33.75H14.73L6.66003 25.68L8.47503 23.835L14.535 25.11V9C14.535 7.755 15.54 6.75 16.785 6.75C18.03 6.75 19.035 7.755 19.035 9V18Z" fill="#0795F4"/>
</svg>
