<svg width="63" height="63" viewBox="0 0 63 63" fill="none" xmlns="http://www.w3.org/2000/svg">
<g clip-path="url(#clip0_39_1233)">
<path d="M25.3811 12.0313V0L31.3963 6.01516V18.0464L25.3811 12.0313Z" fill="#8e090a"/>
<path d="M37.4114 12.2037V0.172394L31.3962 6.18755V18.2188L37.4114 12.2037Z" fill="#8e090a"/>
<path d="M37.4114 50.9697V63L31.3962 56.9848V44.9536L37.4114 50.9697Z" fill="black"/>
<path d="M25.3811 50.7973V62.8276L31.3963 56.8124V44.7812L25.3811 50.7973Z" fill="black"/>
<path d="M41.1182 13.6056L49.6256 5.09821V13.6056L41.1182 22.1121V13.6056Z" fill="black"/>
<path d="M49.5033 22.2343L58.0107 13.7278H49.5033L40.9958 22.2343H49.5033Z" fill="black"/>
<path d="M50.9697 26.067H63L56.9849 32.0821H44.9536L50.9697 26.067Z" fill="black"/>
<path d="M50.7974 38.0973H62.8277L56.8125 32.0821H44.7812L50.7974 38.0973Z" fill="black"/>
<path d="M12.0313 26.067H0L6.01516 32.0821H18.0464L12.0313 26.067Z" fill="black"/>
<path d="M12.2036 38.0973H0.172363L6.18752 32.0821H18.2188L12.2036 38.0973Z" fill="black"/>
<path d="M22.7809 13.8538L14.2734 5.34637V13.8538L22.7809 22.3603V13.8538Z" fill="black"/>
<path d="M14.3956 22.4825L5.88818 13.975H14.3956L22.903 22.4825H14.3956Z" fill="black"/>
<path d="M49.3944 41.8039L57.9018 50.3113H49.3944L40.8879 41.8039H49.3944Z" fill="black"/>
<path d="M40.7656 50.1891L49.273 58.6965V50.1891L40.7656 41.6817V50.1891Z" fill="black"/>
<path d="M13.1803 41.8039L4.67285 50.3113H13.1803L21.6877 41.8039H13.1803Z" fill="black"/>
<path d="M21.809 50.1891L13.3025 58.6965V50.1891L21.809 41.6817V50.1891Z" fill="black"/>
</g>
<defs>
<clipPath id="clip0_39_1233">
<rect width="63" height="63" fill="white"/>
</clipPath>
</defs>
</svg>
